<svg xmlns="http://www.w3.org/2000/svg" xmlns:xlink="http://www.w3.org/1999/xlink" width="940" height="277.1"><rect width="940" height="277.1" rx="5" ry="5" class="a"/><svg y="0%" x="0%"><circle cx="20" cy="20" r="6" fill="#ff5f58"/><circle cx="40" cy="20" r="6" fill="#ffbd2e"/><circle cx="60" cy="20" r="6" fill="#18c132"/></svg><svg height="217.1" viewBox="0 0 90 21.71" width="900" x="15" xmlns="http://www.w3.org/2000/svg" xmlns:xlink="http://www.w3.org/1999/xlink" y="50"><style>@keyframes l{0%{transform:translateX(0)}1.4%{transform:translateX(-90px)}1.5%{transform:translateX(-180px)}1.7%{transform:translateX(-270px)}21.4%{transform:translateX(-360px)}41.1%{transform:translateX(-450px)}60.7%{transform:translateX(-540px)}80.4%{transform:translateX(-630px)}to{transform:translateX(-720px)}}.a{fill:#282c34}.g,.i{fill:#56b6c2;white-space:pre}.i{fill:#d19a66;font-weight:700}</style><g font-family="Monaco,Consolas,Menlo,'Bitstream Vera Sans Mono','Powerline Symbols',monospace" font-size="1.67"><defs><symbol id="1"><text y="1.67" style="white-space:pre" fill="#abb2bf">&gt;</text><text x="2.004" y="1.67" class="g">make</text><text x="7.014" y="1.67" style="white-space:pre" fill="#d19a66">pre-commit</text></symbol><symbol id="2"><text x="1.002" y="1.67" class="i">➮</text><text x="3.006" y="1.67" class="i">Checking</text><text x="12.024" y="1.67" class="i">code</text><text x="17.034" y="1.67" class="i">and</text><text x="21.042" y="1.67" class="i">testing:</text></symbol><symbol id="3"><text x="1.002" y="1.67" class="g">✔</text><text x="3.006" y="1.67" class="g">Organizing</text><text x="14.028" y="1.67" class="g">imports...</text></symbol><symbol id="4"><text x="1.002" y="1.67" class="g">✔</text><text x="3.006" y="1.67" class="g">Formatting</text><text x="14.028" y="1.67" class="g">the</text><text x="18.036" y="1.67" class="g">code</text><text x="23.046" y="1.67" class="g">based</text><text x="29.058" y="1.67" class="g">...</text></symbol><symbol id="5"><text x="1.002" y="1.67" class="g">✔</text><text x="3.006" y="1.67" class="g">Checking</text><text x="12.024" y="1.67" class="g">the</text><text x="16.032" y="1.67" class="g">code</text><text x="21.042" y="1.67" class="g">...</text></symbol><symbol id="6"><text x="1.002" y="1.67" class="g">✔</text><text x="3.006" y="1.67" class="g">Running</text><text x="11.022" y="1.67" class="g">tests...</text></symbol><symbol id="a"><path fill="transparent" d="M0 0h90v11H0z"/></symbol><symbol id="b"><path fill="#abb2bf" d="M0 0h1.102v2.171H0z"/></symbol></defs><path class="a" d="M0 0h90v21.71H0z"/><g style="animation-duration:5.136243s;animation-iteration-count:infinite;animation-name:l;animation-timing-function:steps(1,end)"><svg width="810"><svg><use xlink:href="#a"/><use xlink:href="#b" x="-.004"/></svg><svg x="90"><use xlink:href="#a"/><use xlink:href="#b" x="-.004" y="2.146"/><use xlink:href="#1"/></svg><svg x="180"><use xlink:href="#a"/><use xlink:href="#b" x="-.004" y="4.317"/><use xlink:href="#1"/></svg><svg x="270"><use xlink:href="#a"/><use xlink:href="#b" x="-.004" y="6.488"/><use xlink:href="#1"/><use xlink:href="#2" y="4.342"/></svg><svg x="360"><use xlink:href="#a"/><use xlink:href="#b" x="-.004" y="8.659"/><use xlink:href="#1"/><use xlink:href="#2" y="4.342"/><use xlink:href="#3" y="6.513"/></svg><svg x="450"><use xlink:href="#a"/><use xlink:href="#b" x="-.004" y="10.83"/><use xlink:href="#1"/><use xlink:href="#2" y="4.342"/><use xlink:href="#3" y="6.513"/><use xlink:href="#4" y="8.684"/></svg><svg x="540"><use xlink:href="#a"/><use xlink:href="#b" x="-.004" y="13.001"/><use xlink:href="#1"/><use xlink:href="#2" y="4.342"/><use xlink:href="#3" y="6.513"/><use xlink:href="#4" y="8.684"/><use xlink:href="#5" y="10.855"/></svg><svg x="630"><use xlink:href="#a"/><use xlink:href="#b" x="-.004" y="15.172"/><use xlink:href="#1"/><use xlink:href="#2" y="4.342"/><use xlink:href="#3" y="6.513"/><use xlink:href="#4" y="8.684"/><use xlink:href="#5" y="10.855"/><use xlink:href="#6" y="13.026"/></svg><svg x="720"><use xlink:href="#a"/><use xlink:href="#b" x="-.004" y="17.343"/><use xlink:href="#1"/><use xlink:href="#2" y="4.342"/><use xlink:href="#3" y="6.513"/><use xlink:href="#4" y="8.684"/><use xlink:href="#5" y="10.855"/><use xlink:href="#6" y="13.026"/><text x="1.002" y="16.867" class="g">✔</text><text x="3.006" y="16.867" class="g">Create</text><text x="10.02" y="16.867" class="g">coverage</text><text x="19.038" y="16.867" class="g">badge</text><text x="25.05" y="16.867" class="g">...</text></svg></svg></g></g></svg></svg>